<?xml version="1.0" standalone="no"?>
<!DOCTYPE svg PUBLIC "-//W3C//DTD SVG 20010904//EN"
 "http://www.w3.org/TR/2001/REC-SVG-20010904/DTD/svg10.dtd">
<svg version="1.0" xmlns="http://www.w3.org/2000/svg"
 width="112.000000pt" height="112.000000pt" viewBox="0 0 112.000000 112.000000"
 preserveAspectRatio="xMidYMid meet">
<metadata>
Created by potrace 1.14, written by Peter Selinger 2001-2017
</metadata>
<g transform="translate(0.000000,112.000000) scale(0.100000,-0.100000)"
fill="#000000" stroke="none">
<path d="M580 1067 c-3 -3 -27 -7 -55 -10 -90 -10 -161 -45 -222 -108 -27 -28
-70 -107 -64 -117 1 -1 -1 -21 -4 -45 -4 -23 -8 -55 -10 -72 -1 -17 -14 -38
-30 -51 -22 -17 -29 -33 -32 -70 -6 -58 24 -147 63 -189 23 -25 30 -27 75 -22
36 4 49 3 49 -6 0 -7 18 -31 40 -52 37 -36 40 -43 40 -96 0 -59 -16 -86 -45
-75 -8 3 -30 -3 -48 -14 -43 -26 -107 -48 -159 -55 -64 -9 -91 -22 -110 -55
l-17 -30 510 0 509 0 -22 35 c-22 34 -40 42 -109 50 -43 6 -94 23 -149 50 -25
12 -51 20 -58 18 -25 -9 -42 18 -42 67 l0 48 39 -5 c23 -3 41 -1 45 6 4 6 22
11 41 11 46 0 65 21 60 67 -2 29 2 43 21 61 27 28 64 120 64 161 0 43 -19 88
-44 105 -19 12 -24 27 -29 78 -8 88 -15 118 -37 153 -26 41 -133 143 -162 153
-26 10 -101 15 -108 9z m289 -355 c1 -23 -3 -32 -11 -29 -12 4 -13 13 -8 82 2
30 2 30 10 5 4 -14 8 -40 9 -58z m-594 -30 c-10 -10 -34 28 -28 44 3 8 9 11
14 8 5 -3 10 1 11 8 0 7 3 -2 5 -20 3 -19 1 -37 -2 -40z m545 -302 c13 0 18
-36 8 -54 -10 -18 -26 -20 -63 -6 l-26 10 21 31 c14 19 28 28 37 25 8 -3 18
-6 23 -6z"/>
</g>
</svg>
